<?xml version="1.0" encoding="UTF-8" standalone="no"?>
<!-- Created with Inkscape (http://www.inkscape.org/) -->

<svg
   xmlns:dc="http://purl.org/dc/elements/1.1/"
   xmlns:cc="http://creativecommons.org/ns#"
   xmlns:rdf="http://www.w3.org/1999/02/22-rdf-syntax-ns#"
   xmlns:svg="http://www.w3.org/2000/svg"
   xmlns="http://www.w3.org/2000/svg"
   xmlns:sodipodi="http://sodipodi.sourceforge.net/DTD/sodipodi-0.dtd"
   xmlns:inkscape="http://www.inkscape.org/namespaces/inkscape"
   width="210mm"
   height="272mm"
   viewBox="0 0 210 272"
   version="1.1"
   id="svg4710"
   inkscape:version="0.92.3 (2405546, 2018-03-11)"
   sodipodi:docname="txupon_i.svg">
  <defs
     id="defs4704" />
  <sodipodi:namedview
     id="base"
     pagecolor="#ffffff"
     bordercolor="#666666"
     borderopacity="1.0"
     inkscape:pageopacity="0.0"
     inkscape:pageshadow="2"
     inkscape:zoom="0.49497475"
     inkscape:cx="-371.50376"
     inkscape:cy="275.28286"
     inkscape:document-units="mm"
     inkscape:current-layer="layer1"
     showgrid="false"
     inkscape:window-width="1920"
     inkscape:window-height="1015"
     inkscape:window-x="0"
     inkscape:window-y="0"
     inkscape:window-maximized="1" />
  <metadata
     id="metadata4707">
    <rdf:RDF>
      <cc:Work
         rdf:about="">
        <dc:format>image/svg+xml</dc:format>
        <dc:type
           rdf:resource="http://purl.org/dc/dcmitype/StillImage" />
        <dc:title></dc:title>
      </cc:Work>
    </rdf:RDF>
  </metadata>
  <g
     inkscape:label="Capa 1"
     inkscape:groupmode="layer"
     id="layer1"
     transform="translate(0,-25)">
    <path
       style="fill:#ff2a2a;stroke-width:1.09319782"
       d="m 111.00775,295.26646 c -2.73261,-2.53249 -3.14615,-2.61741 -5.32229,-1.09319 -4.70396,3.29479 -13.773271,1.11259 -13.934521,-3.35284 -0.02,-0.55393 -0.9978,-2.16098 -2.1729,-3.57125 -1.9211,-2.30559 -2.7007,-2.48654 -7.73186,-1.7946 -7.44427,1.02386 -17.82467,-2.79747 -20.82543,-7.66645 -2.64125,-4.28567 -2.57554,-11.03853 0.15702,-16.13689 1.20251,-2.24365 2.18639,-5.31097 2.18639,-6.81631 0,-2.99156 3.4453,-7.10974 5.94808,-7.10974 3.12374,0 2.89979,-2.3278 -0.60789,-6.31846 -2.74834,-3.12675 -4.41058,-4.07505 -7.19045,-4.10211 -3.36138,-0.0327 -3.61573,0.21599 -3.61573,3.53564 0,4.87075 -4.85998,10.28042 -9.29218,10.34312 -4.71918,0.0668 -10.77054,-2.84773 -14.08073,-6.78167 -1.5751,-1.8719 -2.86383,-3.82673 -2.86383,-4.34405 0,-0.51734 -1.65924,-0.67133 -3.68722,-0.34225 -2.15881,0.35034 -3.99814,0.0952 -4.43731,-0.61533 -0.41254,-0.66753 -2.37102,-1.21367 -4.35214,-1.21367 -2.32699,0 -4.64591,-0.96743 -6.55098,-2.733 -1.62193,-1.50315 -3.4155599,-2.73299 -3.9858299,-2.73299 -2.05434,0 -5.40967,-4.4312 -5.40967,-7.14424 0,-1.52431 -0.80073,-3.99354 -1.77939,-5.48718 -2.11347,-3.22555 -1.45182,-9.54567 1.31994,-12.60842 3.48024,-3.84564 10.7386799,-5.74434 19.0180599,-4.97485 4.17504,0.38803 8.81581,1.26358 10.31283,1.94566 2.16608,0.98693 3.49218,0.8746 6.49467,-0.55018 2.07506,-0.98468 5.05133,-1.79032 6.61392,-1.79032 1.56261,0 2.84109,-0.53609 2.84109,-1.19128 0,-2.04521 4.7419,-5.20154 8.89734,-5.92228 3.27723,-0.56841 4.08874,-1.24387 4.60686,-3.83452 0.72094,-3.60473 3.24823,-5.25057 9.77712,-6.3672 4.36622,-0.74676 4.57785,-0.95798 4.24673,-4.23847 -0.19167,-1.8989 0.15425,-4.39196 0.76874,-5.54011 0.73601,-1.37528 0.74856,-2.45619 0.0368,-3.16798 -0.71178,-0.71178 -0.33458,-2.82047 1.10551,-6.18006 1.20227,-2.80481 1.7472,-5.09963 1.21095,-5.09963 -1.04716,0 -5.09374,4.77435 -5.77253,6.81071 -0.22642,0.67928 -1.227,0.92217 -2.22349,0.53977 -1.64364,-0.63073 -1.66157,-1.05486 -0.19307,-4.56947 1.95768,-4.68535 1.13981,-4.80268 -3.83529,-0.5502 -2.08168,1.77935 -4.13636,3.23519 -4.56592,3.23519 -1.52738,0 -1.62578,-3.87245 -0.17365,-6.83251 1.64426,-3.35164 1.03703,-3.874 -1.52508,-1.31188 -1.88242,1.88242 -4.83951,1.74301 -5.50625,-0.25958 -0.23772,-0.714 2.55016,-4.28056 6.19529,-7.92568 3.64513,-3.64515 6.371,-6.62753 6.05748,-6.62753 -1.23232,0 -9.26874,5.81309 -9.26874,6.70448 0,0.52133 -0.98388,0.94792 -2.1864,0.94792 -4.21786,0 -2.49036,-4.08873 3.33045,-7.88271 4.42865,-2.88658 5.0773,-3.66455 3.28839,-3.94405 -1.22567,-0.1915 -4.20519,0.76279 -6.62116,2.12064 -3.20122,1.79918 -4.71963,2.14184 -5.59815,1.26333 -1.64474,-1.64472 -0.46245,-3.21509 4.30481,-5.71783 l 4.02865,-2.11497 -4.14551,0.11774 c -2.28004,0.0647 -4.42521,0.57021 -4.76702,1.12328 -0.34184,0.5531 -3.57284,3.17826 -7.18004,5.83373 -5.36627,3.95044 -7.4165,4.82811 -11.27829,4.82811 -6.52356,0 -9.25126,-3.47313 -9.25126,-11.77941 v -6.0186 l 8.10659,-7.97615 c 6.9751,-6.86285 15.54663,-12.48777 19.02952,-12.48777 0.56063,0 1.63172,-0.7379 2.38022,-1.63978 1.11459,-1.34302 1.03989,-1.6398 -0.41274,-1.6398 -0.9755,0 -1.77365,-0.49196 -1.77365,-1.0932 0,-0.60127 2.21372,-1.09319 4.91939,-1.09319 5.57537,0 6.58399,-1.58018 1.6398,-2.569031 -1.80377,-0.360755 -3.27959,-1.228674 -3.27959,-1.928713 0,-0.891928 1.70652,-1.070694 5.70282,-0.597394 l 5.70282,0.675428 -3.06031,-2.837695 c -4.65846,-4.319545 -2.05845,-5.775769 3.98687,-2.232981 l 4.82455,2.827369 2.35955,-3.191469 2.35956,-3.191474 -2.18826,-3.589102 c -2.73775,-4.490327 -2.82365,-9.788407 -0.19726,-12.165253 2.48413,-2.248116 4.28594,-2.268944 9.4547,-0.109301 3.76928,1.574906 4.17172,1.55878 5.47184,-0.219238 1.0596,-1.449094 1.10242,-2.401003 0.17482,-3.886327 -0.90976,-1.456772 -0.90846,-2.47962 0.005,-3.942323 1.00604,-1.61092 0.75214,-2.438478 -1.37683,-4.487533 -3.05399,-2.939363 -3.27931,-5.214101 -0.85879,-8.669889 1.62587,-2.321246 1.60626,-2.610777 -0.27329,-4.034668 -1.1137,-0.843679 -2.58323,-1.54961 -3.26566,-1.568732 -2.12272,-0.05947 -5.00251,-5.526019 -4.32763,-8.214917 0.95684,-3.812398 7.59641,-9.010579 14.02528,-10.980542 12.668651,-3.881985 41.330641,-3.112529 59.615611,1.600433 17.38896,4.482001 30.8619,15.248119 30.8619,24.661448 0,3.915563 -4.33862,7.888227 -10.23688,9.373428 -3.64485,0.917789 -5.03375,1.838083 -5.28013,3.49872 -0.21514,1.449852 -1.69871,2.726768 -4.16054,3.581007 -2.10442,0.73021 -3.71266,1.850155 -3.57384,2.488768 0.13878,0.638609 -0.96809,2.121093 -2.45971,3.294403 -1.49163,1.173311 -2.71204,3.169354 -2.71204,4.435653 0,1.842172 0.67233,2.302362 3.36369,2.302362 2.29123,0 4.42552,1.061828 6.694,3.330312 2.7365,2.736498 3.22777,3.962126 2.75527,6.873843 -0.56405,3.475751 -0.50388,3.535229 3.14478,3.109273 5.29298,-0.617922 4.60043,1.200088 -1.47286,3.866451 l -5.19271,2.279734 5.26458,0.10887 c 5.67515,0.11747 9.94835,1.76832 8.91311,3.4434 -0.35296,0.57109 -1.81353,1.03835 -3.24569,1.03835 -1.43218,0 -2.908,0.49195 -3.27961,1.09319 -0.37158,0.60128 -0.002,1.09321 0.81975,1.09321 0.82244,0 2.45028,0.72856 3.61741,1.61902 1.75924,1.34222 1.85864,1.79218 0.58138,2.63184 -0.84737,0.55707 -2.32318,0.78348 -3.27959,0.50318 -0.95643,-0.28032 0.12231,0.52334 2.39729,1.7859 2.27491,1.26256 3.84468,2.76727 3.48838,3.34379 -0.35633,0.57654 -3.44747,1.10481 -6.86924,1.17397 -5.78463,0.11684 -5.93273,0.18167 -2.10979,0.92305 4.84911,0.94042 5.66542,1.57703 4.82618,3.76402 -0.45946,1.19734 -1.6508,1.46093 -4.50782,0.9973 -6.70656,-1.08833 -4.21749,1.27853 2.73377,2.59957 6.77082,1.28675 10.22319,3.10858 9.15771,4.83258 -0.32949,0.53313 -2.16884,0.97115 -4.08747,0.9734 l -3.48835,0.003 3.607,2.19915 c 5.43432,3.31324 3.45998,4.52324 -6.15448,3.77191 -7.72726,-0.6039 -8.21817,-0.52114 -6.26245,1.05554 1.1671,0.94095 2.56699,1.71082 3.11081,1.71082 0.54383,0 2.48416,1.0648 4.31181,2.36618 2.7056,1.92656 3.0416,2.58667 1.80854,3.55292 -0.83294,0.65268 -1.60447,2.90847 -1.71455,5.01288 -0.11002,2.1044 -0.35603,5.04729 -0.54658,6.53977 -0.28822,2.25722 0.29699,2.92369 3.47969,3.9629 3.29495,1.07585 3.87228,1.78217 4.15803,5.08715 0.28307,3.27388 0.80852,3.93319 3.57568,4.48662 2.54399,0.50881 3.39036,1.38147 3.92307,4.0451 0.69272,3.4636 0.91983,3.64269 6.03483,4.75943 3.36513,0.7347 4.81249,3.95577 3.16268,7.03847 -0.85643,1.60027 -0.72102,2.45299 0.55813,3.51457 3.55678,2.95159 6.27311,10.85279 3.73114,10.85279 -0.60126,0 -1.0932,-0.62825 -1.0932,-1.39615 0,-0.76789 -1.4481,-2.98162 -3.21796,-4.9194 -2.62427,-2.87315 -4.04536,-3.52322 -7.70197,-3.52322 h -4.48394 l 0.79312,4.0995 c 0.43623,2.25473 0.82746,6.10211 0.86945,8.54973 0.0463,2.69589 0.83048,5.20469 1.9894,6.36397 1.05219,1.05257 1.91309,2.85114 1.91309,3.99685 0,2.89282 4.71856,5.78879 7.87216,4.8315 5.88435,-1.78621 10.56116,-8.73369 8.48749,-12.60836 -1.57246,-2.93819 -3.12488,-2.65654 -7.21668,1.30939 -2.18937,2.12204 -4.18388,3.1744 -5.24474,2.76731 -2.3802,-0.91337 -2.13836,-4.37342 0.47071,-6.73461 1.70094,-1.53935 1.90414,-2.31061 0.92088,-3.49535 -0.88565,-1.06716 -0.91763,-1.86423 -0.10736,-2.67455 0.81033,-0.81033 1.59511,-0.23471 2.63333,1.93144 1.13561,2.36941 2.34749,3.15623 5.22009,3.38916 10.28114,0.83378 10.223,10.35374 -0.10204,16.7068 -4.33043,2.66456 -5.28151,3.81444 -5.28151,6.38555 0,2.12 -1.46802,4.80352 -4.53188,8.28424 -3.88314,4.41151 -4.31292,5.36745 -3.00234,6.67803 1.31061,1.31062 2.22642,1.28946 6.39771,-0.14767 3.617,-1.24616 5.51244,-1.38364 7.37512,-0.53496 5.41792,2.46857 2.06649,5.46926 -6.23861,5.58574 -2.10442,0.0295 -4.98152,0.69439 -6.39357,1.4775 l -2.56733,1.42385 3.35917,1.3914 c 4.30076,1.78144 8.19182,5.6874 10.48973,10.52988 1.49623,3.15308 1.59264,4.48964 0.55145,7.64447 -0.69397,2.10281 -2.40299,4.57103 -3.79783,5.48495 -1.39483,0.91394 -3.68763,3.34607 -5.09514,5.40475 -3.13364,4.58343 -5.71788,5.70131 -16.1857,7.00155 -7.96667,0.98957 -14.90031,0.33944 -20.95024,-1.96436 -3.45002,-1.31375 -14.82525,2.36043 -17.13872,5.53581 -1.5651,2.14818 -6.77051,2.70584 -6.77051,0.72533 0,-2.0991 -9.68374,-0.3846 -12.43698,2.20196 -3.20912,3.01481 -5.1753,2.91799 -8.79088,-0.43283 z m 28.88026,-6.46577 c 3.30691,-0.91637 7.11945,-1.98169 8.47228,-2.36737 1.35284,-0.38566 2.4597,-1.34858 2.4597,-2.13984 0,-0.79123 0.89714,-1.72338 1.99366,-2.07139 2.41234,-0.76564 6.75191,-4.67297 6.75191,-6.07936 0,-0.55751 -2.09073,0.39197 -4.64609,2.10988 -2.55534,1.71793 -6.42637,3.86296 -8.60224,4.76673 -5.69963,2.36741 -22.70093,4.45819 -30.90003,3.80005 -9.82383,-0.78856 -21.861091,-5.59317 -26.387631,-10.53248 -4.46076,-4.86752 -4.08669,-5.67402 0.87603,-1.88877 2.05034,1.56388 4.73568,2.84341 5.96742,2.84341 1.23176,0 2.5423,0.78893 2.91233,1.75319 0.41253,1.07503 1.357131,1.49063 2.441911,1.07435 0.97304,-0.37338 2.32172,-0.24257 2.99708,0.2907 7.01649,5.54028 31.9766,5.36317 43.15628,-0.30623 10.30005,-5.22331 13.57655,-13.00905 8.59125,-20.41484 -4.08657,-6.07066 -7.14686,-6.93965 -14.65712,-4.16198 -3.49039,1.29091 -10.03569,3.00049 -14.54513,3.79906 -4.50945,0.79854 -8.32195,1.47798 -8.47227,1.50983 -0.15032,0.0319 -0.2733,1.7477 -0.2733,3.81296 0,6.1541 -1.71935,9.36334 -5.0164,9.36334 -2.5918,0 -2.83464,-0.33716 -2.39589,-3.32654 0.34796,-2.37073 0.0918,-3.17441 -0.89149,-2.79708 -10.169151,3.90224 -19.887811,-1.69995 -14.080741,-8.11669 1.52761,-1.68801 1.23282,-2.00108 -3.5529,-3.77324 -2.87029,-1.06287 -7.88755,-3.34725 -11.14947,-5.0764 -5.88209,-3.1181 -5.96284,-3.12821 -9.83878,-1.23226 -3.17366,1.55245 -3.97459,2.60866 -4.26225,5.62081 -0.3135,3.28291 0.35749,4.38217 5.83878,9.56549 7.11648,6.72964 5.909,7.52828 -3.14189,2.07814 -7.01175,-4.22224 -8.05314,-3.70665 -6.89747,3.41493 0.75845,4.67378 3.13793,7.52515 8.61074,10.31837 5.1286,2.61753 7.10277,2.6137 7.93719,-0.0154 1.15151,-3.62808 3.96637,-3.68432 8.14672,-0.1628 5.47567,4.61273 12.63038,7.93363 20.308471,9.42633 8.3276,1.61899 24.44904,1.07661 32.24934,-1.08494 z m 39.3551,-5.54657 c 0,-0.90189 -0.43169,-1.63979 -0.95935,-1.63979 -0.52761,0 -1.57173,0.7379 -2.32023,1.63979 -1.137,1.37 -0.97915,1.63979 0.95935,1.63979 1.33365,0 2.32023,-0.69727 2.32023,-1.63979 z m -13.72932,-1.05844 c -1.16712,-0.88275 -3.10592,-1.60323 -4.30843,-1.60106 -1.93268,0.003 -1.86926,0.18526 0.54661,1.56631 3.74225,2.13926 6.57888,2.16546 3.76182,0.0348 z m 22.47492,0.65927 c 0,-0.52019 -1.02933,-2.25436 -2.28741,-3.85372 -4.04905,-5.14755 -13.53006,-7.69021 -18.58585,-4.98444 -1.17983,0.6314 -1.85637,1.61532 -1.50339,2.18639 1.02746,1.66247 3.9711,1.20142 5.58486,-0.87476 1.35763,-1.74663 1.60631,-1.76046 2.85771,-0.15908 0.75389,0.96471 2.47567,2.10473 3.82621,2.53339 1.35051,0.42864 2.45549,1.23813 2.45549,1.79886 0,0.56075 0.98388,1.01953 2.1864,1.01953 1.21465,0 2.18638,0.7288 2.18638,1.63981 0,0.90188 0.73791,1.63978 1.63979,1.63978 0.90189,0 1.63981,-0.42559 1.63981,-0.94576 z M 84.134929,281.61433 c 0,-0.60125 -0.49195,-1.09321 -1.0932,-1.09321 -0.60127,0 -1.0932,0.49196 -1.0932,1.09321 0,0.60125 0.49193,1.0932 1.0932,1.0932 0.60125,0 1.0932,-0.49195 1.0932,-1.0932 z m 104.688431,-6.8325 c -0.89012,-1.35283 -4.32693,-3.85626 -7.63738,-5.56318 -5.31785,-2.74199 -6.72523,-3.01525 -12.08215,-2.34595 -4.92553,0.61541 -6.17734,1.19418 -6.67172,3.08463 -0.3347,1.27991 -0.0606,2.82753 0.60923,3.43915 0.84584,0.7724 0.99538,0.71612 0.48962,-0.18428 -1.15093,-2.0491 8.50548,-3.02267 15.17541,-1.53002 3.16567,0.70844 6.62547,2.24913 7.68847,3.42373 2.65362,2.93221 4.4163,2.69699 2.42852,-0.32408 z m 7.87247,-1.84124 c 2.85069,-5.32656 -0.62905,-12.66047 -8.07841,-17.02609 -4.06715,-2.3835 -5.93896,-2.72331 -15.00069,-2.72331 -13.27454,0 -14.61705,0.8665 -11.63089,7.50702 l 2.14684,4.77404 5.41458,-0.71826 c 7.92856,-1.05176 17.62165,1.9037 21.4718,6.54683 3.52495,4.25097 4.17832,4.43969 5.67677,1.63977 z m -81.05353,-5.62203 c 0.41416,-4.41243 -1.40409,-3.30444 -2.61456,1.59321 -0.60045,2.42947 -0.4308,3.03459 0.74253,2.64881 0.83642,-0.27501 1.67885,-2.18393 1.87203,-4.24202 z m -3.31131,-3.57448 c 4.87222,-3.59458 3.1069,-4.45888 -2.22824,-1.09095 -3.64064,2.29823 -4.84825,2.57501 -6.9857,1.60113 -1.54704,-0.70487 -2.58417,-2.11803 -2.58417,-3.52112 0,-1.95933 -0.26891,-2.1205 -1.639791,-0.98277 -6.56823,5.45113 6.284861,9.27107 13.437901,3.99371 z m -4.25166,-2.22625 c 0.96773,-1.16606 0.87328,-1.65858 -0.41276,-2.1521 -2.27257,-0.87205 -4.94729,0.28567 -4.94729,2.1414 0,1.96633 3.73082,1.97381 5.36005,0.0116 z m 27.73905,-6.20598 c 2.27116,-0.63071 5.81859,-2.62989 7.88317,-4.44262 3.04825,-2.6764 3.64135,-3.85817 3.15548,-6.28747 -0.39108,-1.95545 -0.0159,-3.47501 1.0833,-4.38724 1.43583,-1.19162 1.92355,-0.81658 3.3369,2.56606 2.48062,5.93697 9.28843,8.61707 21.318,8.3925 9.97461,-0.18622 14.77527,-2.01126 13.56778,-5.15795 -0.41804,-1.08939 -1.41281,-1.49168 -2.69786,-1.09103 -1.11959,0.3491 -3.1425,0.91149 -4.49532,1.24981 -2.40905,0.60243 -2.41372,0.58555 -0.22741,-0.81991 8.60313,-5.53045 12.6599,-10.43063 14.11317,-17.04732 1.00098,-4.55738 -0.94181,-5.35995 -5.18743,-2.14298 -1.92811,1.46097 -4.7355,3.25269 -6.23864,3.98163 l -2.73299,1.32535 2.54441,-2.21867 c 1.39943,-1.22026 3.85823,-3.1757 5.46399,-4.3454 4.14838,-3.0219 2.15265,-4.13184 -2.20618,-1.22701 l -3.61582,2.40969 3.82618,-3.30987 c 3.31703,-2.86941 3.56789,-3.40941 1.88518,-4.05788 -1.44457,-0.55671 -1.64068,-1.10987 -0.76682,-2.16284 0.81534,-0.9824 0.82387,-1.63131 0.0279,-2.12324 -1.07659,-0.66537 -1.3169,-0.10584 -1.59075,3.70383 -0.0613,0.85263 -0.65273,1.73069 -1.31433,1.95121 -0.79751,0.26584 -1.41368,-3.38815 -1.82831,-10.8424 -0.70385,-12.65432 -4.56471,-27.17103 -9.01487,-33.8957 -1.50361,-2.2721 -2.3579,-4.13106 -1.89842,-4.13101 1.57348,5e-5 6.99859,7.72313 9.27796,13.20793 l 2.27843,5.48247 5.0249,-0.32634 c 4.20609,-0.27317 5.08013,-0.7143 5.36387,-2.70709 0.27031,-1.89841 -0.28339,-2.45211 -2.73299,-2.73299 -2.30971,-0.26484 -3.57498,-1.38192 -5.09906,-4.50186 -1.45942,-2.98759 -2.91356,-4.32694 -5.19269,-4.78275 -2.70469,-0.54095 -3.16557,-1.1451 -3.16557,-4.14963 0,-3.16653 -0.44359,-3.64941 -4.45721,-4.85192 -4.39991,-1.31825 -4.44816,-1.38882 -3.7548,-5.49284 0.62638,-3.70752 0.42848,-4.23083 -1.82868,-4.83531 -4.95903,-1.32806 -5.67387,-0.94932 -3.75001,1.98686 0.97103,1.48199 1.76552,3.50307 1.76552,4.49129 0,1.76167 -2.0185,1.72084 -6.86476,-0.13884 -1.22208,-0.46896 -1.47515,0.0484 -1.06733,2.18174 0.69005,3.6097 -1.01183,3.59024 -5.80583,-0.0663 l -3.75325,-2.8627 0.007,4.77584 c 0.007,4.16351 0.42894,5.016 3.29857,6.64896 5.87404,3.34268 5.31906,7.6448 -1.17005,9.07005 -6.50581,1.42892 -9.37541,-1.75961 -6.46976,-7.18886 0.78793,-1.47221 0.77124,-2.78794 -0.0548,-4.33154 -1.55478,-2.90511 -3.11351,-1.86556 -2.44515,1.63074 0.68611,3.58917 -2.45903,4.9991 -4.662,2.0899 -1.48463,-1.96058 -1.55402,-1.93918 -1.58729,0.48963 -0.0499,3.64488 -3.16048,2.66467 -5.51954,-1.73933 l -1.91355,-3.57228 -0.73679,4.91329 c -0.8542,5.69618 -2.19207,7.04377 -3.87367,3.90167 -1.38978,-2.59759 -3.29558,-2.93136 -3.29558,-0.57722 0,2.56375 -1.96646,1.92634 -3.5845,-1.16186 l -1.46794,-2.80167 -1.27652,2.80167 c -1.57219,3.45057 -2.81573,3.54805 -4.36198,0.34198 -0.94445,-1.95832 -1.20134,-2.06976 -1.26026,-0.54661 -0.0783,2.02288 -2.26038,2.74327 -2.26038,0.74624 0,-0.66938 -0.93215,-0.87102 -2.18639,-0.47294 -1.5051,0.4777 -2.186401,0.19645 -2.186401,-0.90256 0,-0.87809 -0.76346,-1.88948 -1.69657,-2.24755 -0.95239,-0.36547 -1.40996,-0.18727 -1.04316,0.40622 0.68669,1.11108 -3.21706,7.27977 -5.98859,9.46317 -1.3962,1.09991 -1.41765,1.84485 -0.15376,5.34007 1.23398,3.41249 1.23122,4.21234 -0.0172,5.00339 -0.81732,0.51787 -1.80687,0.94908 -2.19899,0.95829 -1.03623,0.0241 -3.11324,6.44558 -3.11324,9.62484 0,1.49743 -0.85436,3.34736 -1.89858,4.11093 -1.79391,1.31173 -1.78457,1.51426 0.16943,3.67341 1.89386,2.09268 1.92216,2.44628 0.33607,4.19891 -1.28777,1.42297 -1.44571,2.42527 -0.61583,3.90818 1.38138,2.46839 0.46313,3.47021 -3.18075,3.47021 -4.08947,0 -4.13783,1.99417 -0.15828,6.52662 4.42521,5.04003 12.77151,9.32475 18.1639,9.32475 8.678741,0 16.700391,-4.35266 16.700391,-9.06186 0,-2.00367 -0.14976,-2.02344 -2.69455,-0.35604 -1.48197,0.97104 -3.30223,1.76552 -4.04499,1.76552 -0.74278,0 0.71574,-1.33976 3.24112,-2.97725 4.59413,-2.97891 6.28194,-5.58801 2.67853,-4.14061 -4.75065,1.90819 -4.95443,1.76263 -1.36894,-0.97784 2.71559,-2.07558 3.9036,-3.9072 4.09926,-6.32004 0.28311,-3.49091 1.96321,-6.35502 3.72786,-6.35502 0.54879,0 0.47121,0.98398 -0.17243,2.1866 -0.64361,1.20264 -1.40848,4.76918 -1.69967,7.92568 -0.97404,10.5585 -1.57905,12.41578 -5.14406,15.79136 -4.92175,4.66023 -10.15926,6.16274 -16.516391,4.73806 -7.73633,-1.73374 -16.02539,-5.1457 -18.77377,-7.72767 -4.39448,-4.12839 -11.76767,-0.51342 -8.0897,3.96627 2.51812,3.06699 13.83303,10.00667 20.54796,12.60252 13.676651,5.28704 35.909711,7.87574 45.283691,5.27257 z m 0.8248,-11.68616 c 0.0613,-1.44614 2.62654,-4.25079 5.08605,-5.56072 3.48794,-1.85769 4.64257,-1.48109 1.43836,0.46914 l -2.73301,1.66346 3.27961,-0.62391 c 3.14762,-0.59883 3.10362,-0.51357 -1.09319,2.11841 -4.53856,2.84627 -6.03709,3.33103 -5.97782,1.93362 z m 13.30223,-9.23752 c -3.23239,-3.2324 -0.57565,-7.43375 4.70078,-7.43375 3.80134,0 6.01257,1.67442 6.01257,4.55299 0,3.59834 -7.87753,5.71658 -10.71335,2.88076 z m 9.10315,-2.01564 c 0.976,-1.5792 -1.51591,-4.32491 -3.92513,-4.32491 -2.39489,0 -3.62701,1.70988 -2.79484,3.87855 0.69935,1.82246 5.66562,2.15234 6.71997,0.44636 z m -17.79406,-5.11571 c -4.75594,-0.59023 -4.54746,-2.48879 0.2733,-2.48879 h 3.82618 v -9.20277 c 0,-5.06152 0.30494,-9.99742 0.67763,-10.96863 0.58533,-1.52532 -0.10701,-1.69455 -5.0829,-1.24238 l -5.76049,0.52348 4.16734,-4.26774 c 2.29203,-2.34726 4.57933,-4.01311 5.08288,-3.70191 0.50354,0.31121 0.91554,-0.26508 0.91554,-1.28065 0,-1.53262 -0.7897,-1.74993 -4.64609,-1.27849 -2.55533,0.3124 -5.58768,0.95192 -6.73849,1.42115 -1.39781,0.56993 -1.84958,0.46016 -1.36078,-0.3307 0.40238,-0.65112 2.69683,-1.51586 5.09871,-1.92168 4.18008,-0.70619 5.4705,-1.92103 3.39991,-3.20069 -0.53194,-0.32878 -1.20027,-1.95661 -1.4852,-3.61742 -0.28488,-1.66082 -0.90945,-4.00356 -1.38787,-5.20608 -0.67559,-1.69807 -0.0942,-1.46405 2.60277,1.0478 1.90997,1.7788 4.03147,5.09939 4.71448,7.37907 0.68301,2.2797 1.40995,4.1449 1.61541,4.1449 0.20546,0 1.35742,-0.98389 2.55996,-2.18641 2.8276,-2.82758 7.10251,-2.79441 9.10934,0.0707 3.33972,4.76811 -0.64055,8.43097 -7.98951,7.35237 -2.9749,-0.43661 -3.22448,-0.21297 -3.21856,2.88428 0.003,1.84668 -0.11619,4.0955 -0.26609,4.99739 -0.14988,0.90189 0.14041,3.54178 0.64507,5.8664 0.92165,4.24543 -0.93285,16.1825 -2.45816,15.8226 -0.40781,-0.0962 -2.34029,-0.37335 -4.29438,-0.61584 z m 15.54673,-31.30046 c 2.67399,-1.95525 1.44184,-5.07748 -2.00378,-5.07748 -3.04445,0 -4.60359,2.84774 -2.76927,5.05797 1.55478,1.87339 2.23394,1.87617 4.77305,0.0196 z m -3.52154,21.12522 c -4.04512,-1.62593 -3.30453,-6.28369 1.30536,-8.20983 4.58102,-1.91405 6.96045,-1.15833 7.87927,2.50256 0.53213,2.12022 0.0849,3.23112 -1.92253,4.77451 -2.92351,2.24783 -3.73202,2.35168 -7.2621,0.93276 z m 6.85557,-2.58064 c 1.7679,-1.29272 1.86137,-1.78583 0.62169,-3.27959 -0.80252,-0.96692 -2.07655,-1.75809 -2.83119,-1.75809 -2.04705,0 -4.16072,3.01744 -3.4362,4.90547 0.79191,2.06372 2.93553,2.11392 5.6457,0.13221 z M 91.240709,213.9342 c -5.25249,-0.86653 -7.10578,-1.89683 -7.10578,-3.95039 0,-2.45892 3.89548,-4.05268 5.41892,-2.21706 3.26345,3.93221 17.318641,6.25238 23.542131,3.88621 1.59973,-0.60821 2.5931,-0.64732 2.24772,-0.0885 -1.59597,2.58237 -14.89088,3.88945 -24.102991,2.36972 z m -39.38035,33.60355 c 2.95347,-1.34566 4.24793,-4.52756 4.27341,-10.5043 0.0115,-2.80971 0.3821,-3.43364 1.70974,-2.88227 5.4307,2.25531 8.63891,0.7675 9.03621,-4.19045 0.24829,-3.09849 1.95044,-4.291 1.95044,-1.3665 0,2.26823 2.12361,2.06438 2.8471,-0.2733 0.32565,-1.05221 1.05229,-2.77399 1.61475,-3.82621 0.85797,-1.60501 0.53705,-1.91695 -1.99289,-1.93708 -6.81528,-0.0543 -18.42638,-7.84557 -21.01871,-14.10398 -0.7304,-1.76335 -1.98416,-3.45788 -2.78615,-3.76563 -2.07947,-0.79795 -9.5402,1.44319 -10.87865,3.26788 -0.95739,1.3052 -2.07457,1.20479 -7.38658,-0.66382 -7.43317,-2.61481 -17.18354,-2.85494 -21.6722399,-0.53373 -2.56844,1.32818 -3.22531,2.39182 -3.22531,5.22272 0,1.9552 0.81055,4.71213 1.80123,6.12651 1.72117,2.45731 2.14635,2.53053 9.5654799,1.64742 12.98938,-1.54612 19.71262,-1.01163 25.51746,2.02859 6.91859,3.62352 6.98809,6.43888 0.28456,11.52512 -2.70566,2.05288 -5.06274,4.10673 -5.23792,4.56408 -0.55825,1.4574 5.04808,7.29984 8.76092,9.12988 4.32689,2.13267 3.47683,2.06615 6.83715,0.53507 z m -10.08686,-4.76906 c -1.35283,-0.94968 -2.45969,-2.51294 -2.45969,-3.47391 0,-1.56116 0.20373,-1.57226 1.9131,-0.10423 3.23717,2.78023 5.95233,3.34528 5.53424,1.15166 -0.20015,-1.05008 -1.46572,-2.06646 -2.81242,-2.2586 -1.34668,-0.19212 -2.44852,-0.80704 -2.44852,-1.3665 0,-1.70458 2.8896,-1.13842 5.61817,1.10075 2.10103,1.72417 2.3558,2.4863 1.37044,4.09949 -1.62594,2.66197 -3.75198,2.93148 -6.71532,0.85128 z m 156.754521,3.8633 c 2.25582,0 3.52661,-0.44446 3.12568,-1.09321 -0.93623,-1.51479 -3.77472,-1.28762 -7.65242,0.6124 -1.80376,0.88385 -2.37846,1.35357 -1.27709,1.04391 1.10141,-0.3097 3.71311,-0.5631 5.80383,-0.5631 z M 32.521209,235.93345 c 1.07411,-1.07416 3.80269,-3.09619 6.06347,-4.49342 4.33556,-2.67952 4.76691,-4.8132 1.08351,-5.35969 -2.62382,-0.38926 -13.47276,7.81758 -13.47276,10.1917 0,2.23662 3.96266,2.02452 6.32578,-0.33859 z m -9.92085,-1.59992 c 3.62279,-1.53976 14.52706,-9.61587 14.52706,-10.75926 0,-0.40945 -1.4859,-0.96257 -3.30197,-1.2291 -3.47145,-0.50951 -5.4769,0.51913 -10.60487,5.43946 -1.71732,1.64779 -4.08724,3.58545 -5.26646,4.3059 -1.85263,1.13187 -1.92117,1.46392 -0.50426,2.44296 2.00722,1.38692 1.35745,1.41214 5.1505,-0.19996 z m -5.03105,-4.99624 c 2.41108,-1.01837 10.06412,-7.86846 9.4627,-8.46987 -0.26742,-0.26742 -5.0136,0.56963 -10.54706,1.86013 l -10.0608199,2.34638 2.42382,2.58004 c 2.4004999,2.55523 5.3220199,3.11911 8.7213599,1.68332 z m 61.56768,-11.90017 c 2.43693,-2.62815 2.56382,-3.15602 1.13743,-4.73218 -2.11195,-2.33366 -2.02671,-3.89639 0.30761,-5.63939 1.29327,-0.96566 1.93198,-2.98037 1.97138,-6.21837 0.0452,-3.71983 0.6558,-5.27402 2.733,-6.95716 1.97269,-1.59843 2.72424,-3.35399 2.86341,-6.68868 0.10379,-2.48679 0.62928,-7.41939 1.16776,-10.96132 l 0.97904,-6.43991 -2.30201,2.88703 c -2.64298,3.31459 -4.93697,3.76253 -4.98765,0.97389 -0.0715,-3.93663 -3.03502,1.87932 -3.80305,7.46366 l -0.74014,5.38142 h -4.19904 c -5.80618,0 -9.98851,1.75806 -9.75035,4.09861 0.56087,5.51199 -0.0301,6.83323 -3.06331,6.8483 -5.20346,0.0259 -7.92568,1.20958 -7.92568,3.44647 0,5.3409 6.13935,11.99832 15.83517,17.17137 5.60001,2.98779 6.47069,2.93134 9.77643,-0.63374 z m 118.244771,-8.08531 c 2.06255,-2.27911 2.05736,-2.29471 -0.63931,-1.91309 -1.51826,0.21485 -2.87984,1.22952 -3.08343,2.29784 -0.49287,2.58585 1.19194,2.41173 3.72274,-0.38475 z m -47.1978,-30.06846 c 3.87015,-1.4851 0.3306,-6.63994 -3.68431,-5.36568 -2.14884,0.68202 -3.03122,3.77929 -1.51004,5.30044 0.90735,0.9074 2.93346,0.93283 5.19435,0.0652 z m -21.75282,-29.28009 c 7.50414,-3.64543 7.554,-3.69747 3.00764,-3.13874 -3.10774,0.38192 -5.44958,0.0265 -7.14488,-1.08422 -2.292,-1.50179 -2.75357,-1.4648 -5.06357,0.40576 -3.06596,2.48263 -7.20246,2.62331 -11.48399,0.39048 -3.63005,-1.89306 -7.4983,-1.14162 -7.00232,1.36027 0.58125,2.932 7.47386,5.77336 14.00512,5.77336 4.64969,0 7.81877,-0.85862 13.682,-3.70691 z m -9.3522,-7.15349 c 0.76396,-1.42744 0.77645,-3.04952 0.0386,-4.99056 -0.60136,-1.58166 -1.09337,-4.35861 -1.09337,-6.17103 0,-3.13564 -0.17213,-3.26064 -3.55289,-2.58021 -6.77297,1.36318 -7.3791,1.73471 -7.3791,4.52357 0,8.08309 8.92226,14.94454 11.98687,9.21823 z m 15.14012,-3.89044 c 0.18902,-2.99146 -0.24717,-7.54927 -0.96931,-10.1285 -1.12267,-4.00979 -1.64783,-4.59584 -3.62324,-4.04336 -6.33485,1.77175 -8.322,3.0356 -8.29885,5.27828 0.0378,3.6544 3.85318,11.14775 6.69018,13.13905 4.21537,2.95881 5.81523,1.86351 6.20122,-4.24547 z m -91.919441,-2.04431 c 8.67917,-8.15937 16.79463,-12.57533 30.35672,-16.51848 5.41134,-1.57335 11.2263,-3.62459 12.92217,-4.55839 1.69586,-0.93379 4.03325,-1.44939 5.1942,-1.1458 1.24636,0.32594 1.83333,0.10305 1.43325,-0.54433 -0.37266,-0.60299 -2.09513,-0.88827 -3.8277,-0.63397 -1.73258,0.25427 -3.15013,0.0556 -3.15013,-0.44153 0,-0.97146 1.44162,-1.2589 4.91938,-0.98084 1.24833,0.0998 1.71737,-0.19796 1.0932,-0.69401 -0.60126,-0.47786 -1.0932,-2.09866 -1.0932,-3.60182 0,-2.54036 -0.42378,-2.75831 -6.01258,-3.0923 -6.82763,-0.40802 -20.02669,1.40755 -27.32996,3.7593 -9.05965,2.91733 -20.67311,9.34532 -24.46279,13.54005 -5.06224,5.60327 -7.34038,14.96455 -4.64343,19.08062 2.99731,4.57448 6.30551,3.62998 14.60087,-4.1685 z m 59.875061,5.85996 c 0.37267,-0.60301 0.34586,-3.30867 -0.0596,-6.0126 l -0.73725,-4.91617 h -5.396161 c -2.96789,0 -6.91894,-0.78747 -8.78013,-1.74993 l -3.38399,-1.7499 0.7247,3.62345 c 0.87499,4.37494 5.70693,9.70883 8.81607,9.7319 1.24034,0.009 2.99307,0.49362 3.89496,1.07645 2.1267,1.3744 4.070761,1.37312 4.921391,-0.003 z m 38.76807,-2.11132 c 1.76773,-3.30306 1.35644,-4.44466 -1.60135,-4.44466 -2.30786,0 -2.733,0.51014 -2.733,3.2796 0,3.79881 2.55694,4.48613 4.33435,1.16506 z m 3.10727,-13.08329 c 0.18473,-3.23681 -0.0923,-6.31329 -0.61558,-6.83659 -0.53982,-0.53979 -2.51024,-0.40806 -4.55431,0.30452 -3.34707,1.1668 -3.5589,1.52668 -2.98401,5.06933 0.72058,4.44036 3.66454,8.13628 6.11103,7.67191 1.24295,-0.23591 1.79835,-1.92398 2.04287,-6.20917 z m -28.00345,-11.63958 c 2.97548,-1.01385 5.39705,-2.64818 6.03189,-4.071 0.89057,-1.99583 1.83411,-2.33095 5.88223,-2.0893 3.75581,0.2242 4.45908,0.0183 3.18171,-0.93163 -1.24299,-0.92437 -1.30745,-1.35417 -0.26648,-1.7762 0.75532,-0.3062 1.09525,-1.00666 0.75538,-1.55657 -0.33986,-0.5499 0.51798,-1.03865 1.90629,-1.08613 1.38832,-0.0474 1.93693,-0.32521 1.21913,-0.61722 -0.71779,-0.29202 -1.00586,-1.31068 -0.64015,-2.26371 0.5506,-1.43487 0.1171,-1.59679 -2.52111,-0.94175 -1.75231,0.43506 -3.35686,1.26714 -3.56566,1.84905 -0.5956,1.66006 -3.44658,-1.22207 -3.44658,-3.484266 0,-2.326894 -5.56988,-6.759278 -10.60861,-8.442078 -4.12849,-1.378812 -9.65665,-0.157669 -13.70602,3.027566 l -2.703711,2.126729 -1.19921,-2.631968 c -3.15406,-6.922404 -12.42675,-7.812106 -19.73889,-1.893899 -4.00799,3.243928 -5.36703,7.790742 -2.60394,8.711757 0.75158,0.250539 1.36649,-0.279667 1.36649,-1.178219 0,-0.898548 1.54404,-2.932917 3.43116,-4.520843 4.63791,-3.902526 10.51654,-3.554199 12.93057,0.76618 1.4301,2.559435 1.45603,3.350909 0.17908,5.465991 -1.1619,1.9245 -1.1736,2.17001 -0.0528,1.1067 2.24383,-2.128699 3.22938,-1.613667 2.18228,1.14042 -2.0159,5.30221 2.85103,11.38732 10.976791,13.72427 5.14297,1.47908 5.42896,1.46782 11.01012,-0.43388 z m -13.92358,-6.45546 c -3.414241,-3.41424 -3.411551,-7.14358 0.007,-10.833155 6.53379,-7.050098 15.29756,-5.795928 17.32032,2.478695 2.09605,8.57458 -10.861,14.82162 -17.32814,8.35446 z m 4.33308,-5.63262 c 2.00681,-0.77008 2.31237,-4.312977 0.47016,-5.451525 -1.59095,-0.98327 -4.25386,2.534395 -3.4683,4.581545 0.67397,1.75637 0.68211,1.75873 2.99814,0.86998 z m 31.53963,2.13288 c -0.74012,-0.29945 -2.21594,-0.31767 -3.27959,-0.0406 -1.06363,0.27717 -0.45809,0.52218 1.3457,0.54447 1.80377,0.0223 2.67401,-0.20451 1.93389,-0.50396 z m 20.72491,-8.205622 c 3.65694,-1.871397 4.27976,-4.796696 1.71536,-8.05679 l -2.36103,-3.001579 -15.92598,0.59399 c -8.75926,0.326686 -16.80806,0.947699 -17.88621,1.380023 -1.84702,0.7406 -1.85302,0.904594 -0.10372,2.837359 1.02101,1.128231 2.88704,2.067378 4.14668,2.087013 1.25963,0.01969 4.99592,1.032217 8.30283,2.250188 11.22902,4.135758 16.81895,4.618548 22.11222,1.909796 z m -75.132291,0.177119 c 0.37161,-0.601265 -0.30824,-1.093197 -1.51076,-1.093197 -1.20252,0 -2.49042,0.491932 -2.86203,1.093197 -0.37159,0.601254 0.30825,1.093195 1.51076,1.093195 1.20253,0 2.49043,-0.491941 2.86203,-1.093195 z m 18.532931,-7.827866 c 3.20837,-1.461822 3.66525,-3.097237 0.87133,-3.119032 -1.0522,-0.0076 -3.037661,-0.316187 -4.412131,-0.684392 -2.35112,-0.629835 -2.42161,-0.499537 -1.19103,2.201322 1.52054,3.337199 1.17816,3.221274 4.731831,1.602102 z M 80.457069,85.392056 c 1.72219,-0.89819 4.48409,-1.636098 6.13755,-1.639802 4.21077,-0.0095 3.74172,-1.550904 -1.0932,-3.592698 -2.25472,-0.952169 -5.39043,-2.578995 -6.96824,-3.615163 -5.85171,-3.842902 -8.89178,2.013004 -3.96374,7.6351 1.35284,1.543366 2.52645,2.814999 2.60803,2.825864 0.0816,0.0102 1.55741,-0.715123 3.2796,-1.613301 z M 130.5958,83.745518 c 0.37162,-0.601258 0.27767,-1.099227 -0.20877,-1.106594 -0.48643,-0.0074 -8.26351,-0.735185 -17.28235,-1.617368 -19.769071,-1.933713 -18.314321,-1.887503 -17.491181,-0.555631 0.3716,0.601258 3.22928,1.130152 6.350401,1.175317 3.12113,0.04517 9.61029,0.724223 14.42035,1.509021 11.26257,1.837568 13.38873,1.926628 14.21155,0.595255 z m 11.4786,-0.914375 c 0,-0.836868 -7.77082,-2.760301 -22.73766,-5.628024 -8.11689,-1.555243 -26.121351,-1.443043 -27.117651,0.168988 -0.53784,0.870257 -0.18483,1.04658 1.10465,0.551757 3.12267,-1.198278 30.142321,1.23743 38.365281,3.458471 9.14926,2.471236 10.38538,2.643681 10.38538,1.448808 z m 8.00766,-1.845948 c 0.10519,-0.58623 -1.4075,-1.220023 -3.36157,-1.408432 -2.17644,-0.209844 -3.5529,-0.94295 -3.5529,-1.892267 0,-0.852341 -1.35283,-1.854383 -3.00628,-2.226761 -1.65347,-0.372379 -4.72809,-1.091439 -6.8325,-1.597913 -3.57395,-0.860152 -13.78829,-1.469896 -17.49114,-1.044134 -0.9019,0.103703 2.54168,1.050513 7.65236,2.104023 10.49222,2.162841 20.51479,5.060897 22.95715,6.638121 1.87649,1.211779 3.35645,0.978622 3.63488,-0.572637 z m -1.75861,-6.44079 c -1.07249,-0.813556 -6.7298,-3.102521 -12.5718,-5.086585 -10.26549,-3.486379 -11.21591,-3.608565 -28.33161,-3.642295 -9.740391,-0.01919 -18.076021,0.331321 -18.523631,0.778927 -0.44761,0.447607 0.20149,1.829147 1.44243,3.070087 2.19615,2.196143 2.63141,2.2197 16.337241,0.884186 15.79438,-1.53903 27.69666,-0.449231 35.79245,3.277232 5.52547,2.543347 8.78839,2.943735 5.85492,0.718448 z m 5.50963,-0.910967 c -0.2468,-0.751572 -1.88658,-1.49692 -3.64401,-1.656324 l -3.19528,-0.289824 2.733,1.617584 c 3.38471,2.003322 4.69051,2.107806 4.10629,0.328564 z m -2.08451,-5.819798 c 0.2101,-0.175499 -2.00363,-1.5183 -4.91938,-2.984 -8.21606,-4.130055 -18.46343,-6.227671 -30.42367,-6.227671 -5.92405,0 -10.48824,-0.282796 -10.14262,-0.628433 0.34563,-0.345637 5.62633,-0.640258 11.73488,-0.654713 6.10851,-0.01445 10.84756,-0.285128 10.5312,-0.601494 -0.31637,-0.316366 -5.63805,-0.932674 -11.82595,-1.369572 l -11.25076,-0.794363 11.03042,-0.162108 c 12.62627,-0.185564 25.1678,2.47319 32.82011,6.95773 6.14924,3.603703 7.38934,5.714684 1.63147,2.777245 -5.37897,-2.744135 -5.95555,-2.233885 -0.86782,0.767949 2.34902,1.385964 4.84289,1.955824 7.10578,1.623702 4.74468,-0.696371 4.37817,-1.970544 -1.09123,-3.793678 -8.64232,-2.880777 -5.63987,-6.220832 3.185,-3.543116 10.51434,3.19035 16.69753,1.18665 16.69753,-5.410935 0,-7.729966 -18.10163,-19.661147 -33.88913,-22.337061 -3.9082,-0.662421 -10.30339,-1.757443 -14.21158,-2.433383 -11.40301,-1.972215 -29.098321,-1.367124 -37.808291,1.292854 -1.85492,0.566481 -4.76674,2.485166 -6.47073,4.263739 -2.64104,2.756657 -2.92596,3.611691 -1.93109,5.795199 1.02096,2.24075 8.40364,6.7016 15.05399,9.096084 1.63057,0.587091 0.84693,0.962474 -3.08245,1.476597 -8.6425,1.130783 -8.90893,5.137041 -0.70281,10.5676 4.10766,2.718318 4.79148,2.823109 13.891591,2.128783 10.25531,-0.782469 23.81714,1.016501 30.8886,4.097356 3.26801,1.423807 12.38267,1.485897 14.04694,0.09568 z m -50.32746,-8.865254 c 0.78915,-0.315793 1.73203,-0.276955 2.0953,0.08631 0.36327,0.363261 -0.28241,0.621638 -1.43481,0.57417 -1.27352,-0.05244 -1.53256,-0.311497 -0.66049,-0.660475 z"
       id="path4946"
       inkscape:connector-curvature="0"
       inkscape:export-xdpi="96"
       inkscape:export-ydpi="96" />
  </g>
</svg>
